HIERARCHY
ROOT Hips
{
 OFFSET 0.000000 0.000000 0.000000
 CHANNELS 6 Xposition Yposition Zposition Yrotation Xrotation Zrotation
 JOINT Chest
 {
  OFFSET 0.000000 9.585900 0.002600
  CHANNELS 3 Yrotation Xrotation Zrotation
  JOINT Chest2
  {
   OFFSET 0.000000 9.601200 -0.005300
   CHANNELS 3 Yrotation Xrotation Zrotation
   JOINT Chest3
   {
    OFFSET 0.000000 9.561800 0.000000
    CHANNELS 3 Yrotation Xrotation Zrotation
    JOINT Chest4
    {
     OFFSET 0.000000 9.552100 0.000000
     CHANNELS 3 Yrotation Xrotation Zrotation
     JOINT Neck
     {
      OFFSET 0.000000 14.453000 0.000000
      CHANNELS 3 Yrotation Xrotation Zrotation
      JOINT Head
      {
       OFFSET 0.000000 8.936500 -0.011300
       CHANNELS 3 Yrotation Xrotation Zrotation
       End Site
       {
        OFFSET 0.000000 17.073600 -0.006000
       }
      }
     }
     JOINT RightCollar
     {
      OFFSET -2.921100 9.558500 0.000000
      CHANNELS 3 Yrotation Xrotation Zrotation
      JOINT RightShoulder
      {
       OFFSET -13.519700 0.000000 0.000000
       CHANNELS 3 Yrotation Xrotation Zrotation
       JOINT RightElbow
       {
        OFFSET 0.000000 -29.696600 0.000000
        CHANNELS 3 Yrotation Xrotation Zrotation
        JOINT RightWrist
        {
         OFFSET 0.000000 -24.004700 0.000000
         CHANNELS 3 Yrotation Xrotation Zrotation
         End Site
         {
          OFFSET 0.000000 -17.728500 0.000000
         }
        }
       }
      }
     }
     JOINT LeftCollar
     {
      OFFSET 2.921100 9.558500 0.000000
      CHANNELS 3 Yrotation Xrotation Zrotation
      JOINT LeftShoulder
      {
       OFFSET 13.519700 0.000000 0.000000
       CHANNELS 3 Yrotation Xrotation Zrotation
       JOINT LeftElbow
       {
        OFFSET 0.000000 -29.696600 0.000000
        CHANNELS 3 Yrotation Xrotation Zrotation
        JOINT LeftWrist
        {
         OFFSET 0.000000 -24.004700 0.000000
         CHANNELS 3 Yrotation Xrotation Zrotation
         End Site
         {
          OFFSET 0.000000 -17.728500 0.000000
         }
        }
       }
      }
     }
    }
   }
  }
 }
 JOINT RightHip
 {
  OFFSET -7.771700 -0.012900 -0.001300
  CHANNELS 3 Yrotation Xrotation Zrotation
  JOINT RightKnee
  {
   OFFSET 0.000000 -40.869800 0.001200
   CHANNELS 3 Yrotation Xrotation Zrotation
   JOINT RightAnkle
   {
    OFFSET 0.000000 -39.717900 0.002100
    CHANNELS 3 Yrotation Xrotation Zrotation
    JOINT RightToe
    {
     OFFSET 0.000000 -4.965400 11.033500
     CHANNELS 3 Yrotation Xrotation Zrotation
     End Site
     {
      OFFSET 0.000000 -1.423100 5.872300
     }
    }
   }
  }
 }
 JOINT LeftHip
 {
  OFFSET 7.771700 -0.012900 -0.001300
  CHANNELS 3 Yrotation Xrotation Zrotation
  JOINT LeftKnee
  {
   OFFSET 0.000000 -40.869800 0.001200
   CHANNELS 3 Yrotation Xrotation Zrotation
   JOINT LeftAnkle
   {
    OFFSET 0.000000 -39.717900 0.002100
    CHANNELS 3 Yrotation Xrotation Zrotation
    JOINT LeftToe
    {
     OFFSET 0.000000 -4.965400 11.033500
     CHANNELS 3 Yrotation Xrotation Zrotation
     End Site
     {
      OFFSET 0.000000 -1.423100 5.872300
     }
    }
   }
  }
 }
}
MOTION
Frames: 11
Frame Time: 0.008333
0.000000 85.388000 0.000000 0.000000 -5.767877 0.000000 0.000000 11.653817 0.000000 0.000000 -5.885947 0.000000 0.000000 -0.000000 0.000000 0.000000 -0.000000 0.000000 0.000000 12.528835 0.000000 0.000000 0.711642 0.000000 0.000000 -0.000000 0.000000 0.000000 0.000000 -90.000000 0.000000 -2.309062 0.000000 0.000000 2.309062 0.000000 0.000000 -0.000000 0.000000 0.000000 -0.000000 90.000000 0.000000 -2.309062 0.000000 0.000000 2.309062 0.000000 0.000000 8.520406 0.000000 0.000000 1.905762 0.000000 -0.000000 -4.658285 0.000000 0.000000 -0.000000 0.000000 0.000000 8.520406 0.000000 0.000000 1.905762 0.000000 -0.000000 -4.658285 0.000000 0.000000 -0.000000 0.000000
-69.528798 50.574894 -4.682549 165.361930 -6.454563 -0.498425 2.892615 6.562692 0.956259 0.108054 0.272000 -0.001958 0.190697 0.506008 -0.002795 2.431013 6.311314 0.086332 1.606573 17.489279 -0.110339 3.011839 -3.306861 -0.770610 2.294088 6.747053 0.890800 -8.299142 -12.699742 -7.497115 -23.417278 -79.050176 39.146963 -2.754234 -3.365652 -33.499186 -5.281452 3.226707 -0.709423 18.617881 -7.825676 3.917269 41.078850 -77.450092 -62.327270 3.821685 -1.031430 20.998262 -6.754067 -73.383468 -0.604368 -128.364282 81.293417 -126.775046 -2.055532 -17.324709 0.188601 -0.377508 0.943138 -0.176373 -9.629986 -77.663450 26.442722 117.525718 78.397661 114.342874 -15.525478 -22.599655 0.711408 -0.389158 -1.225679 -0.165839
-69.530983 50.574553 -4.683795 165.367761 -6.463610 -0.481838 2.883777 6.563035 0.938634 0.110690 0.270231 -0.000125 0.187823 0.506731 -0.004716 2.430777 6.306950 0.085781 1.607777 17.508254 -0.098272 3.003454 -3.275224 -0.749246 2.306261 6.755636 0.898881 -8.249502 -12.701628 -7.480276 -23.236974 -79.058651 38.912895 -2.751581 -3.359583 -33.502968 -5.275977 3.235238 -0.709914 18.614358 -7.821282 3.921848 41.367551 -77.189510 -62.656137 3.842394 -0.986413 20.971856 -6.713888 -73.377251 -0.656387 -128.378118 81.292007 -126.792743 -2.054777 -17.330564 0.189432 -0.376384 0.945698 -0.175895 -9.525965 -77.655316 26.337282 117.487611 78.389923 114.308255 -15.572172 -22.602940 0.717485 -0.405657 -1.214364 -0.166277
-69.532766 50.574075 -4.684001 165.370864 -6.467997 -0.469002 2.880811 6.556607 0.927313 0.112359 0.269229 0.000197 0.186267 0.507396 -0.004951 2.436523 6.289022 0.090020 1.599140 17.541179 -0.093680 2.990869 -3.240619 -0.729539 2.306105 6.781255 0.902054 -8.237747 -12.697523 -7.473805 -23.138064 -79.073672 38.798835 -2.748113 -3.351084 -33.505104 -5.274818 3.260028 -0.718093 18.598251 -7.823437 3.933077 41.710169 -76.856490 -63.045895 3.873650 -0.949724 20.933772 -6.681830 -73.376573 -0.695202 -128.369784 81.286894 -126.779770 -2.068217 -17.330474 0.180369 -0.357349 0.945041 -0.167532 -9.460554 -77.651928 26.269449 117.490551 78.394738 114.314490 -15.600018 -22.606315 0.725419 -0.371284 -1.205717 -0.166950
-69.534170 50.573709 -4.685281 165.417490 -6.479289 -0.462159 2.840627 6.543719 0.920168 0.108280 0.281246 -0.001632 0.190076 0.493645 -0.002572 2.431895 6.302519 0.089570 1.597378 17.557943 -0.083744 2.978380 -3.204178 -0.711741 2.305479 6.793308 0.903010 -8.229695 -12.694000 -7.461726 -23.022801 -79.100489 38.681284 -2.709278 -3.328899 -33.485607 -5.273828 3.272256 -0.723484 18.568494 -7.831183 3.964325 42.141872 -76.451678 -63.524152 3.915761 -0.926793 20.890692 -6.686669 -73.370237 -0.739564 -128.388346 81.285688 -126.797445 -2.105392 -17.272636 0.172532 -0.319052 0.888802 -0.148688 -9.449373 -77.640899 26.205611 117.491166 78.393209 114.312360 -15.603507 -22.669152 0.714424 -0.321105 -1.140482 -0.149014
-69.533385 50.573291 -4.685519 165.421023 -6.488293 -0.465564 2.840603 6.540404 0.926619 0.106707 0.286887 -0.003345 0.191771 0.487017 -0.000645 2.429340 6.310990 0.087977 1.600654 17.568081 -0.069032 2.966594 -3.167796 -0.695880 2.307575 6.794973 0.910835 -8.226667 -12.690223 -7.455163 -22.902476 -79.135744 38.563844 -2.725035 -3.312795 -33.488266 -5.269764 3.264973 -0.726574 18.549095 -7.833105 3.993159 42.547325 -76.005382 -64.000154 3.967956 -0.918211 20.843896 -6.692061 -73.363107 -0.734814 -128.399969 81.283815 -126.808146 -2.106206 -17.264196 0.171716 -0.319396 0.881011 -0.146781 -9.472461 -77.630009 26.221129 117.500857 78.392778 114.316843 -15.561157 -22.681561 0.706049 -0.336028 -1.129000 -0.151493
-69.531004 50.572937 -4.685607 165.416709 -6.498847 -0.478667 2.851358 6.538839 0.944362 0.103005 0.292143 -0.004847 0.195992 0.480937 0.000967 2.428162 6.306028 0.090492 1.597544 17.588463 -0.066847 2.956071 -3.074063 -0.642084 2.320365 6.796366 0.927096 -8.240674 -12.675783 -7.463079 -22.785668 -79.170684 38.460417 -2.722319 -3.299194 -33.487464 -5.273279 3.271967 -0.730105 18.547474 -7.838274 4.010281 42.923810 -75.535775 -64.465978 4.027569 -0.920782 20.793883 -6.739171 -73.352422 -0.681083 -128.429111 81.289072 -126.832965 -2.121143 -17.252115 0.165447 -0.312118 0.870937 -0.144207 -9.534321 -77.615712 26.287147 117.527872 78.393971 114.340476 -15.529916 -22.701983 0.712036 -0.343033 -1.112559 -0.164807
-69.531299 50.572666 -4.687376 165.416118 -6.515117 -0.475436 2.860399 6.544365 0.944340 0.098352 0.290877 -0.001960 0.201281 0.481622 -0.001764 2.429192 6.300589 0.094321 1.589703 17.608956 -0.063401 2.951686 -3.023894 -0.616610 2.317437 6.806300 0.932327 -8.252234 -12.668231 -7.459682 -22.631528 -79.234408 38.335654 -2.708568 -3.299278 -33.487337 -5.279581 3.277940 -0.732845 18.551226 -7.845079 4.024566 43.281567 -75.055678 -64.922508 4.086578 -0.931905 20.744164 -6.726335 -73.335919 -0.693963 -128.436572 81.288648 -126.840020 -2.125465 -17.255860 0.164695 -0.309511 0.874396 -0.142834 -9.517905 -77.599939 26.271933 117.565533 78.395798 114.375477 -15.527552 -22.710424 0.720385 -0.361556 -1.114086 -0.168220
-69.531053 50.572421 -4.689177 165.420880 -6.532665 -0.477114 2.867097 6.550222 0.947426 0.097003 0.291949 -0.000998 0.203264 0.480274 -0.002545 2.433745 6.297738 0.096292 1.592743 17.638372 -0.046247 2.935654 -2.979187 -0.596339 2.303942 6.818073 0.936102 -8.258181 -12.664985 -7.456444 -22.594773 -79.246094 38.305395 -2.700238 -3.304292 -33.481984 -5.292226 3.287677 -0.733303 18.553656 -7.849540 4.031435 43.626857 -74.591220 -65.359926 4.142397 -0.950444 20.696299 -6.724871 -73.317441 -0.700059 -128.448602 81.288813 -126.850289 -2.126974 -17.254735 0.165202 -0.308933 0.873123 -0.142949 -9.518851 -77.582324 26.268210 117.595358 78.398291 114.404811 -15.521431 -22.720802 0.725606 -0.352618 -1.112120 -0.169783
-69.532246 50.571966 -4.689757 165.420533 -6.541691 -0.472760 2.875567 6.549549 0.943875 0.100523 0.290766 -0.000464 0.202699 0.478377 -0.002429 2.440418 6.296465 0.098681 1.581951 17.658173 -0.039947 2.934350 -2.918595 -0.567621 2.296638 6.824750 0.942161 -8.273438 -12.657605 -7.454614 -22.526406 -79.279677 38.252766 -2.709096 -3.296451 -33.482948 -5.305000 3.298487 -0.735297 18.556602 -7.856334 4.037657 43.929675 -74.149992 -65.747124 4.196861 -0.974438 20.654688 -6.692557 -73.311241 -0.735188 -128.483616 81.290345 -126.881183 -2.120878 -17.249799 0.165121 -0.315778 0.869154 -0.145037 -9.496549 -77.574438 26.244822 117.637509 78.410340 114.445202 -15.505001 -22.724778 0.729650 -0.353030 -1.115203 -0.170382
-69.531364 50.571464 -4.689723 165.373036 -6.551782 -0.476737 2.926709 6.555171 0.953826 0.109144 0.280384 -0.001245 0.200084 0.479538 0.000661 2.447899 6.295990 0.097389 1.579619 17.686491 -0.027036 2.925997 -2.898526 -0.558536 2.297383 6.828389 0.950286 -8.303974 -12.652054 -7.448819 -22.463520 -79.322335 38.227570 -2.707642 -3.291798 -33.484880 -5.301330 3.300052 -0.733860 18.560739 -7.861781 4.047829 44.170586 -73.741457 -66.074004 4.245423 -0.997115 20.622257 -6.664172 -73.301803 -0.714411 -128.497226 81.290776 -126.893411 -2.081916 -17.291557 0.171027 -0.354607 0.911590 -0.161943 -9.487573 -77.563719 26.281920 117.662488 78.414388 114.470446 -15.456299 -22.672844 0.732801 -0.394961 -1.172817 -0.188770
